<!-- Generator: Adobe Illustrator 22.1.0, SVG Export Plug-In  -->
<svg version="1.1"
	 xmlns="http://www.w3.org/2000/svg" xmlns:xlink="http://www.w3.org/1999/xlink" xmlns:a="http://ns.adobe.com/AdobeSVGViewerExtensions/3.0/"
	 x="0px" y="0px" width="400px" height="11.1px" viewBox="0 0 400 11.1" enable-background="new 0 0 400 11.1" xml:space="preserve"
	>
<defs>
</defs>
<path fill="none" stroke="#DBBA99" stroke-width="2" stroke-miterlimit="10" d="M0,10.6c10,0,10.1-10.1,20.1-10.1
	s9.9,10,19.9,10s10-10,20-10s10,10,20,10s10-10,20-10s10,10,20,10s10-10,20-10s10,10,20,10s10-10,20-10s10,10,20,10s10-10,20-10
	s10,10,20,10s10-10,20-10s10,10,20,10s10-10,20-10s10,10,20,10s10-10,20-10s10,10,20,10s10-10,20-10s10,10,20,10"/>
</svg>
